<svg xmlns="http://www.w3.org/2000/svg" viewBox="0 0 800 420" role="img" aria-labelledby="title desc">
<title>Hôtel Groslot</title><desc>Demeure Renaissance en briques rouges.</desc>
<defs>
  <linearGradient id="sky" x1="0" y1="0" x2="0" y2="1"><stop stop-color="#CBE5F5"/><stop offset="1" stop-color="#FFF2CF"/></linearGradient>
  <linearGradient id="parch" x1="0" y1="0" x2="1" y2="1"><stop stop-color="#FFF8E7"/><stop offset="1" stop-color="#EFD9A6"/></linearGradient>
  <filter id="shadow" x="-20%" y="-20%" width="140%" height="140%"><feDropShadow dx="0" dy="8" stdDeviation="8" flood-opacity=".18"/></filter>
</defs>
<rect width="800" height="420" rx="30" fill="url(#sky)"/>

<rect y="340" width="800" height="80" fill="#C8B28C"/><g filter="url(#shadow)"><rect x="120" y="105" width="560" height="235" fill="#A34D42" stroke="#63372F" stroke-width="7"/><path d="M100 105 h600 l-70 -65 H170z" fill="#54423C"/><path d="M350 105 l50 -60 50 60" fill="#76504A"/><g fill="#E9D6A9" stroke="#5D4137" stroke-width="6"><rect x="160" y="145" width="75" height="70"/><rect x="270" y="145" width="75" height="70"/><rect x="455" y="145" width="75" height="70"/><rect x="565" y="145" width="75" height="70"/><rect x="175" y="250" width="70" height="60"/><rect x="555" y="250" width="70" height="60"/></g><path d="M345 340 v-90 q55 -75 110 0 v90" fill="#54423C"/><g fill="#D8B45B"><circle cx="135" cy="120" r="9"/><circle cx="665" cy="120" r="9"/></g></g>
</svg>